<svg id="Layer_1" data-name="Layer 1" xmlns="http://www.w3.org/2000/svg" viewBox="0 0 332.26 188.26"><defs><style>.cls-1{fill:#fff;}</style></defs><path class="cls-1" d="M271.31,54.29c4.73,1.34,8.86,2.33,12.87,3.68,41.19,13.91,55.77,66.16,26,100.52-12.52,14.44-28.74,21-47.55,21.78-5.61.22-11.23.06-16.85.06H74.59c-10.41,0-20.59-1.26-30.28-5.38C19.54,164.4,3.63,137.24,6.78,110.79,10.21,82,31.48,59.67,59.27,55.16c10.73-1.74,21-.24,31.89,2.9.65-1.89,1.38-3.66,1.89-5.5C105.29,9,157-8.06,192.59,19.7c2.8,2.19,5.34,4.72,8.45,7.48C213.25,12,228.61,6,247,13,265.81,20,271.72,35.73,271.31,54.29Zm-108,49.86C178.39,92.51,193,82.33,206.93,71.4c-11-16.77-36.89-29.46-63.56-19.82-23.67,8.56-38.92,32.52-36.78,56.83,2.29,26,21.23,46.5,45.67,50.62,23,3.88,48.3-7.31,55.53-24.27Zm108.42-7.74a7.77,7.77,0,1,0,8.26,7.76A8,8,0,0,0,271.72,96.41ZM239,112a7.71,7.71,0,0,0,8.05-7.31A7.56,7.56,0,0,0,240,96.43a7.77,7.77,0,0,0-8.47,7.58A7.89,7.89,0,0,0,239,112Zm-24.57-8.09a7.66,7.66,0,0,0-7.88-7.47,7.75,7.75,0,0,0-7.66,7.73,7.77,7.77,0,1,0,15.54-.26Z"/><path class="cls-1" d="M157,76.38a7.34,7.34,0,0,1-6.94,7,7.12,7.12,0,0,1-.41-14.24A7.47,7.47,0,0,1,157,76.38Z"/></svg>